<?xml version="1.0" encoding="UTF-8"?>
<svg xmlns="http://www.w3.org/2000/svg" xmlns:xlink="http://www.w3.org/1999/xlink" width="144pt" height="144pt" viewBox="0 0 144 144" version="1.1">
<g id="surface5448293">
<path style=" stroke:none;fill-rule:nonzero;fill:rgb(40.392157%,22.745098%,71.764706%);fill-opacity:1;" d="M 126 111 C 126 119.285156 119.285156 126 111 126 L 33 126 C 24.71875 126 18 119.285156 18 111 L 18 33 C 18 24.714844 24.71875 18 33 18 L 111 18 C 119.285156 18 126 24.714844 126 33 Z M 126 111 "/>
<path style=" stroke:none;fill-rule:nonzero;fill:rgb(100%,100%,100%);fill-opacity:1;" d="M 99.089844 76.800781 C 97.140625 74.101562 94.320312 72.238281 90.691406 71.25 C 90.691406 71.25 93.75 70.140625 96.511719 66 C 98.160156 63.359375 99 60.179688 99 56.460938 C 99 50.011719 96.660156 45.058594 91.980469 41.671875 C 87.300781 38.28125 82.019531 36 73.050781 36 L 45 36 L 45 108 L 76.289062 108 C 84.78125 107.941406 91.171875 106.109375 95.519531 102.601562 C 99.839844 99.03125 102 93.75 102 86.699219 C 102 82.800781 101.039062 79.5 99.089844 76.800781 Z M 63 48 C 63 48 75.511719 48 75.75 48 C 80.308594 48 84 51.691406 84 56.25 C 84 60.808594 80.308594 64.5 75.75 64.5 C 75.511719 64.5 63 64.5 63 64.5 Z M 78 96 L 63 96 L 63 78 L 78 78 C 82.980469 78 87 82.019531 87 87 C 87 91.980469 82.980469 96 78 96 Z M 78 96 "/>
</g>
</svg>
